<svg width="61" height="61" viewBox="0 0 61 61" fill="none" xmlns="http://www.w3.org/2000/svg">
<g clip-path="url(#clip0_4_95)">
<rect x="0.5" y="0.5" width="60" height="60" fill="#272727" stroke="#202020"/>
<g filter="url(#filter0_d_4_95)">
<path d="M32.4971 51.928C28.6305 51.928 25.2278 51.1933 22.2891 49.724C19.3891 48.216 17.1078 45.9927 15.4451 43.054C13.8211 40.0767 13.0091 36.384 13.0091 31.976C13.0091 27.22 13.9565 23.1793 15.8511 19.854C17.7458 16.49 20.3751 13.9187 23.7391 12.14C27.1418 10.3613 31.0665 9.472 35.5131 9.472C37.9105 9.472 40.2111 9.762 42.4151 10.342C44.6578 10.8833 46.5525 11.6567 48.0991 12.662L43.1691 22.232C41.9705 21.3813 40.7525 20.8207 39.5152 20.55C38.3165 20.2407 37.0791 20.086 35.8031 20.086C33.0578 20.086 30.8538 20.9173 29.1912 22.58C27.5671 24.204 26.7551 26.582 26.7551 29.714C26.7551 30.294 26.7551 30.874 26.7551 31.454C26.7551 31.9953 26.7551 32.556 26.7551 33.136L23.6231 30.874C24.3965 29.5593 25.3051 28.4573 26.3491 27.568C27.3931 26.64 28.6305 25.944 30.0611 25.48C31.4918 24.9773 33.1545 24.726 35.0491 24.726C37.5238 24.726 39.8051 25.2673 41.8931 26.35C44.0198 27.394 45.7211 28.8827 46.9971 30.816C48.3118 32.7493 48.9692 35.05 48.9692 37.718C48.9692 40.618 48.2345 43.1313 46.7651 45.258C45.2958 47.3847 43.3045 49.028 40.7911 50.188C38.3165 51.348 35.5518 51.928 32.4971 51.928ZM31.5691 42.474C32.3811 42.474 33.0965 42.3193 33.7151 42.01C34.3725 41.662 34.8752 41.1787 35.2232 40.56C35.5712 39.9413 35.7452 39.2067 35.7452 38.356C35.7452 37.08 35.3585 36.0747 34.5851 35.34C33.8118 34.5667 32.8065 34.18 31.5691 34.18C30.7571 34.18 30.0418 34.354 29.4231 34.702C28.8045 35.05 28.3018 35.5333 27.9151 36.152C27.5671 36.7707 27.3931 37.5053 27.3931 38.356C27.3931 39.2067 27.5671 39.9413 27.9151 40.56C28.3018 41.1787 28.8045 41.662 29.4231 42.01C30.0418 42.3193 30.7571 42.474 31.5691 42.474Z" fill="#64B9AF"/>
</g>
</g>
<defs>
<filter id="filter0_d_4_95" x="11.0092" y="3.47198" width="53.96" height="60.456" filterUnits="userSpaceOnUse" color-interpolation-filters="sRGB">
<feFlood flood-opacity="0" result="BackgroundImageFix"/>
<feColorMatrix in="SourceAlpha" type="matrix" values="0 0 0 0 0 0 0 0 0 0 0 0 0 0 0 0 0 0 127 0" result="hardAlpha"/>
<feOffset dx="7" dy="3"/>
<feGaussianBlur stdDeviation="4.5"/>
<feComposite in2="hardAlpha" operator="out"/>
<feColorMatrix type="matrix" values="0 0 0 0 0 0 0 0 0 0 0 0 0 0 0 0 0 0 0.45 0"/>
<feBlend mode="normal" in2="BackgroundImageFix" result="effect1_dropShadow_4_95"/>
<feBlend mode="normal" in="SourceGraphic" in2="effect1_dropShadow_4_95" result="shape"/>
</filter>
<clipPath id="clip0_4_95">
<rect width="61" height="61" fill="white"/>
</clipPath>
</defs>
</svg>
