<svg width="61" height="61" viewBox="0 0 61 61" fill="none" xmlns="http://www.w3.org/2000/svg">
<g clip-path="url(#clip0_4_97)">
<rect x="0.5" y="0.5" width="60" height="60" fill="#272727" stroke="#202020"/>
<g filter="url(#filter0_d_4_97)">
<path d="M30.5077 51.928C26.9117 51.928 23.741 51.406 20.9957 50.362C18.289 49.2793 16.1624 47.7713 14.6157 45.838C13.069 43.866 12.2957 41.5653 12.2957 38.936C12.2957 36.3067 13.0884 34.064 14.6737 32.208C16.259 30.352 18.4244 28.9407 21.1697 27.974C23.915 27.0073 27.0277 26.524 30.5077 26.524C33.9877 26.524 37.1004 27.0073 39.8457 27.974C42.591 28.9407 44.7564 30.352 46.3417 32.208C47.927 34.064 48.7197 36.3067 48.7197 38.936C48.7197 41.5653 47.9464 43.866 46.3997 45.838C44.853 47.7713 42.707 49.2793 39.9617 50.362C37.255 51.406 34.1037 51.928 30.5077 51.928ZM30.5077 42.706C31.8224 42.706 32.8857 42.3387 33.6977 41.604C34.5484 40.8307 34.9737 39.7867 34.9737 38.472C34.9737 37.1573 34.5484 36.1327 33.6977 35.398C32.8857 34.6247 31.8224 34.238 30.5077 34.238C29.193 34.238 28.1104 34.6247 27.2597 35.398C26.4477 36.1327 26.0417 37.1573 26.0417 38.472C26.0417 39.7867 26.4477 40.8307 27.2597 41.604C28.1104 42.3387 29.193 42.706 30.5077 42.706ZM30.5077 33.136C27.337 33.136 24.4757 32.6913 21.9237 31.802C19.4104 30.874 17.419 29.5593 15.9497 27.858C14.4804 26.118 13.7457 24.03 13.7457 21.594C13.7457 19.1193 14.461 16.9927 15.8917 15.214C17.3224 13.3967 19.2944 11.9853 21.8077 10.98C24.321 9.97466 27.221 9.472 30.5077 9.472C33.7944 9.472 36.6944 9.97466 39.2077 10.98C41.721 11.9853 43.693 13.3967 45.1237 15.214C46.5544 16.9927 47.2697 19.1193 47.2697 21.594C47.2697 24.03 46.535 26.118 45.0657 27.858C43.5964 29.5593 41.605 30.874 39.0917 31.802C36.5784 32.6913 33.717 33.136 30.5077 33.136ZM30.5077 25.654C31.4357 25.654 32.209 25.3447 32.8277 24.726C33.4464 24.1073 33.7557 23.2567 33.7557 22.174C33.7557 21.0527 33.4464 20.202 32.8277 19.622C32.209 19.0033 31.4357 18.694 30.5077 18.694C29.5797 18.694 28.8064 19.0033 28.1877 19.622C27.569 20.202 27.2597 21.0527 27.2597 22.174C27.2597 23.2567 27.569 24.1073 28.1877 24.726C28.8064 25.3447 29.5797 25.654 30.5077 25.654Z" fill="#444444"/>
</g>
</g>
<defs>
<filter id="filter0_d_4_97" x="10.2957" y="3.47198" width="54.424" height="60.456" filterUnits="userSpaceOnUse" color-interpolation-filters="sRGB">
<feFlood flood-opacity="0" result="BackgroundImageFix"/>
<feColorMatrix in="SourceAlpha" type="matrix" values="0 0 0 0 0 0 0 0 0 0 0 0 0 0 0 0 0 0 127 0" result="hardAlpha"/>
<feOffset dx="7" dy="3"/>
<feGaussianBlur stdDeviation="4.5"/>
<feComposite in2="hardAlpha" operator="out"/>
<feColorMatrix type="matrix" values="0 0 0 0 0 0 0 0 0 0 0 0 0 0 0 0 0 0 0.45 0"/>
<feBlend mode="normal" in2="BackgroundImageFix" result="effect1_dropShadow_4_97"/>
<feBlend mode="normal" in="SourceGraphic" in2="effect1_dropShadow_4_97" result="shape"/>
</filter>
<clipPath id="clip0_4_97">
<rect width="61" height="61" fill="white"/>
</clipPath>
</defs>
</svg>
