<svg width="61" height="61" viewBox="0 0 61 61" fill="none" xmlns="http://www.w3.org/2000/svg">
<g clip-path="url(#clip0_3_76)">
<g filter="url(#filter0_d_3_76)">
<path d="M36.5879 15.6337L29.0848 15.7073L35.4997 12.2094L33.9819 6.7928L38.2407 10.0248L42.5241 6.7478L41.3991 11.158L48.4604 11.9681L41.1127 14.8318L38.1835 19.9457L36.5879 15.6337Z" fill="#FFE36C"/>
<path d="M41.1454 8.83427L40.8345 10.0452L40.3722 11.8658L42.2378 12.0785L45.077 12.4017L41.0841 13.9604L40.5441 14.1691L40.2577 14.6723L38.343 18.0147L37.5575 15.8874L37.1566 14.8032L36.0029 14.8196L32.3577 14.8564L35.3197 13.2404L36.4652 12.6145L36.1134 11.3585L35.4302 8.92019L37.2466 10.2989L38.2408 11.0517L39.2308 10.2948L41.1454 8.83427V8.83427ZM38.2367 8.99383L33.0532 5.06226C32.8855 4.93544 32.6523 5.09499 32.7096 5.29546L34.5342 11.8044L26.5811 16.141C26.3806 16.2515 26.4583 16.5542 26.6874 16.5501L36.0193 16.456L37.8603 21.4349C37.9257 21.6108 38.163 21.6272 38.2571 21.4676L41.6814 15.4864L51.0173 11.8453C51.23 11.7635 51.1891 11.4485 50.9641 11.4239L42.426 10.4503L43.7433 5.275C43.7965 5.07454 43.5633 4.91907 43.3997 5.0459L38.2367 8.99383V8.99383Z" fill="#FF8F00"/>
<path d="M42.0946 21.484C41.575 21.4103 38.9853 23.9918 37.1157 22.3717L37.1116 22.3758C36.0157 21.4861 34.8182 20.7295 33.5442 20.1216C24.646 15.8791 13.9886 19.6511 9.74203 28.5534C5.49955 37.4516 9.27156 48.1089 18.1738 52.3555C27.072 56.598 37.7294 52.826 41.9759 43.9237C43.3547 41.0354 43.8865 37.963 43.6697 34.9846C43.6533 34.776 43.6165 34.3137 43.7188 33.97C44.4183 31.6217 46.963 30.4517 46.9098 30.3412C46.8566 30.2267 42.6182 21.5576 42.0946 21.484V21.484Z" fill="#4D4D4D"/>
<path d="M47.0115 30.284C48.1531 29.6269 47.952 27.1369 46.5623 24.7223C45.1726 22.3078 43.1205 20.8831 41.9789 21.5402C40.8372 22.1973 41.0383 24.6874 42.428 27.1019C43.8177 29.5164 45.8698 30.9411 47.0115 30.284Z" fill="#757575"/>
<path d="M45.9886 27.1527C46.4367 26.894 46.4776 26.1259 46.0799 25.4371C45.6823 24.7483 44.9967 24.3997 44.5486 24.6584C44.1005 24.9171 44.0596 25.6852 44.4572 26.374C44.8549 27.0627 45.5405 27.4114 45.9886 27.1527Z" fill="#212121"/>
<path opacity="0.9" d="M25.4478 24.8715C26.5688 28.0544 24.9283 29.9526 22.805 31.1677C21.7904 31.7486 20.6121 32.0023 19.5853 32.5628C17.5888 33.651 16.3778 35.7497 14.6391 37.2103C14.2054 37.5744 13.7104 37.9099 13.1458 37.9712C12.3931 38.053 11.6567 37.6112 11.2067 37.0016C10.7607 36.388 8.932 30.5704 15.6087 24.6178C18.5911 21.9586 24.2205 21.3817 25.4478 24.8715V24.8715Z" fill="#757575"/>
<path d="M20.5221 19.2052C22.0317 19.2543 25.1164 19.2748 29.0194 20.8089C30.3326 21.3244 31.4413 22.0445 32.6318 22.7809C33.5932 23.3741 34.6856 23.8691 35.8106 23.7627C36.2075 23.7259 36.6452 23.5704 36.8007 23.2022C36.8948 22.9731 36.8866 22.7399 36.8048 22.5108C36.7066 22.2408 36.3711 21.8644 35.8556 21.4431C35.1198 20.9468 34.3486 20.5051 33.5482 20.1216C29.3098 18.1006 24.6746 17.9002 20.5221 19.2052V19.2052Z" fill="url(#paint0_linear_3_76)"/>
<path d="M45.1793 22.8545C45.1588 22.8341 45.1384 22.8095 45.1179 22.7891C45.1138 22.785 45.1138 22.7809 45.1097 22.7809C45.0156 22.6868 44.9215 22.5968 44.8274 22.5068C44.8152 22.4945 44.7988 22.4823 44.7865 22.4659C43.7515 21.529 42.6919 21.1322 41.98 21.5372C40.8386 22.1918 41.0391 24.6833 42.43 27.097C42.7145 27.5904 43.0388 28.0597 43.3996 28.5003C43.3587 28.3816 41.8287 23.7873 42.7819 22.5559C43.596 21.5168 45.0361 22.7318 45.1793 22.8545V22.8545Z" fill="url(#paint1_linear_3_76)"/>
<path d="M39.464 33.8555C38.4739 33.205 37.5043 32.3213 36.903 30.0999C36.8252 29.8176 36.5634 28.4143 37.3202 28.1893C37.9748 27.9929 38.4617 29.0689 39.0262 30.014C39.6399 31.049 40.634 31.945 41.7018 32.53C42.0128 32.6977 43.4569 33.3482 42.5078 34.2564C41.8818 34.8497 40.0449 34.2401 39.464 33.8555V33.8555Z" fill="#212121"/>
<path d="M44.6556 25.2274C44.6965 25.211 48.849 23.325 48.489 20.5881C48.2517 18.7798 47.548 17.8797 43.8251 16.9961C40.184 16.1328 38.4044 14.4432 38.3308 14.3696C37.9666 14.0177 37.9544 13.4327 38.3103 13.0645C38.6621 12.7004 39.2431 12.6881 39.6113 13.04C39.6399 13.0645 41.1536 14.4637 44.2547 15.2001C47.8631 16.0551 49.8963 17.1311 50.3218 20.3426C50.7964 23.9346 46.8362 26.1724 45.7029 26.7657C44.9993 27.1379 44.1892 25.4319 44.6556 25.2274V25.2274Z" fill="#C69461"/>
<path d="M39.6031 13.044C39.239 12.6922 38.654 12.7045 38.3021 13.0686C37.9503 13.4368 37.9585 14.0177 38.3226 14.3737C38.3758 14.4268 39.3454 15.3432 41.2886 16.1697L41.6773 15.4905L43.1746 14.9055C40.7977 14.1446 39.6276 13.0645 39.6031 13.044V13.044Z" fill="#F6BC41"/>
</g>
</g>
<defs>
<filter id="filter0_d_3_76" x="6" y="-1" width="61.1568" height="67.0975" filterUnits="userSpaceOnUse" color-interpolation-filters="sRGB">
<feFlood flood-opacity="0" result="BackgroundImageFix"/>
<feColorMatrix in="SourceAlpha" type="matrix" values="0 0 0 0 0 0 0 0 0 0 0 0 0 0 0 0 0 0 127 0" result="hardAlpha"/>
<feOffset dx="7" dy="3"/>
<feGaussianBlur stdDeviation="4.5"/>
<feComposite in2="hardAlpha" operator="out"/>
<feColorMatrix type="matrix" values="0 0 0 0 0 0 0 0 0 0 0 0 0 0 0 0 0 0 0.45 0"/>
<feBlend mode="normal" in2="BackgroundImageFix" result="effect1_dropShadow_3_76"/>
<feBlend mode="normal" in="SourceGraphic" in2="effect1_dropShadow_3_76" result="shape"/>
</filter>
<linearGradient id="paint0_linear_3_76" x1="20.6117" y1="17.5" x2="37.6852" y2="23.0276" gradientUnits="userSpaceOnUse">
<stop stop-color="#FFF9C4" stop-opacity="0.1"/>
<stop offset="0.002" stop-color="#FFF9C4" stop-opacity="0.101"/>
<stop offset="0.378" stop-color="#FFFCA6" stop-opacity="0.263"/>
<stop offset="0.701" stop-color="#FFFE94" stop-opacity="0.401"/>
<stop offset="0.93" stop-color="#FFFF8D" stop-opacity="0.5"/>
</linearGradient>
<linearGradient id="paint1_linear_3_76" x1="45.138" y1="26.8074" x2="40.6827" y2="20.9297" gradientUnits="userSpaceOnUse">
<stop offset="0.11" stop-color="#FFF9C4" stop-opacity="0"/>
<stop offset="1" stop-color="#FFFF8D"/>
</linearGradient>
<clipPath id="clip0_3_76">
<rect width="61" height="61" fill="white"/>
</clipPath>
</defs>
</svg>
