<svg width="61" height="61" viewBox="0 0 61 61" fill="none" xmlns="http://www.w3.org/2000/svg">
<g filter="url(#filter0_d_4_100)">
<path d="M29 17.1666C33.1329 17.1666 37.0966 18.8085 40.0191 21.7309C42.9415 24.6533 44.5833 28.617 44.5833 32.75C44.5833 36.8829 42.9415 40.8466 40.0191 43.7691C37.0966 46.6915 33.1329 48.3333 29 48.3333C24.867 48.3333 20.9034 46.6915 17.9809 43.7691C15.0585 40.8466 13.4167 36.8829 13.4167 32.75C13.4167 28.617 15.0585 24.6533 17.9809 21.7309C20.9034 18.8085 24.867 17.1666 29 17.1666V17.1666ZM29 22.6666C28.6677 22.6667 28.3467 22.787 28.0963 23.0054C27.8459 23.2238 27.683 23.5255 27.6378 23.8546L27.625 24.0416V32.2916L27.6378 32.4786C27.6831 32.8078 27.846 33.1093 28.0964 33.3276C28.3468 33.546 28.6678 33.6662 29 33.6662C29.3322 33.6662 29.6532 33.546 29.9036 33.3276C30.154 33.1093 30.3169 32.8078 30.3622 32.4786L30.375 32.2916V24.0416L30.3622 23.8546C30.317 23.5255 30.1541 23.2238 29.9037 23.0054C29.6533 22.787 29.3323 22.6667 29 22.6666V22.6666ZM42.145 17.3921L42.2953 17.504L44.4018 19.3373C44.6658 19.5659 44.8329 19.8863 44.8693 20.2336C44.9057 20.5809 44.8086 20.929 44.5977 21.2073C44.3868 21.4856 44.078 21.6732 43.7338 21.7321C43.3896 21.791 43.0359 21.7168 42.7445 21.5245L42.596 21.4126L40.4895 19.5793C40.2278 19.3503 40.0626 19.0306 40.0272 18.6846C39.9918 18.3386 40.0888 17.9921 40.2987 17.7148C40.5086 17.4375 40.8158 17.25 41.1584 17.1902C41.501 17.1303 41.8535 17.2025 42.145 17.3921ZM33.125 12.5833C33.4734 12.5834 33.8087 12.7158 34.0633 12.9536C34.3178 13.1914 34.4726 13.517 34.4964 13.8646C34.5201 14.2122 34.411 14.5558 34.1912 14.826C33.9713 15.0963 33.6571 15.273 33.312 15.3205L33.125 15.3333H24.875C24.5266 15.3332 24.1913 15.2009 23.9367 14.963C23.6821 14.7252 23.5274 14.3996 23.5036 14.052C23.4799 13.7045 23.5889 13.3608 23.8088 13.0906C24.0286 12.8204 24.3429 12.6436 24.688 12.5961L24.875 12.5833H33.125Z" fill="white"/>
</g>
<defs>
<filter id="filter0_d_4_100" x="11.4167" y="6.58331" width="49.4602" height="53.75" filterUnits="userSpaceOnUse" color-interpolation-filters="sRGB">
<feFlood flood-opacity="0" result="BackgroundImageFix"/>
<feColorMatrix in="SourceAlpha" type="matrix" values="0 0 0 0 0 0 0 0 0 0 0 0 0 0 0 0 0 0 127 0" result="hardAlpha"/>
<feOffset dx="7" dy="3"/>
<feGaussianBlur stdDeviation="4.5"/>
<feComposite in2="hardAlpha" operator="out"/>
<feColorMatrix type="matrix" values="0 0 0 0 0 0 0 0 0 0 0 0 0 0 0 0 0 0 0.45 0"/>
<feBlend mode="normal" in2="BackgroundImageFix" result="effect1_dropShadow_4_100"/>
<feBlend mode="normal" in="SourceGraphic" in2="effect1_dropShadow_4_100" result="shape"/>
</filter>
</defs>
</svg>
